# xmcd
#
# Track frame offsets:
#	150
#	5841
#	24852
#	43405
#	65246
#	87260
#
# Disc length: 1375 seconds
#
# Revision: 1
# Processed by: cddbd v1.5.2PL0 Copyright (c) Steve Scherf et al.
# Submitted via: EZCDAudioConverter 8.0.2.1
#
DISCID=4d055d06
DTITLE=Mai Quốc Huy - Sến 5. Remix Nhac Dance
DYEAR=2011
DGENRE=
TTITLE0=Lời giới thiêu
TTITLE1=Part 1. Remix Nhac Dance
TTITLE2=Part 2. Remix Nhac Dance
TTITLE3=Part 3. Remix Nhac Dance
TTITLE4=Part 4. Remix Nhac Dance
TTITLE5=Part 5. Remix Nhac Dance
EXTD=
EXTT0=
EXTT1=
EXTT2=
EXTT3=
EXTT4=
EXTT5=
PLAYORDER=
